# xmcd CD database file
#
# Track frame offsets:
#	150
#	3503
#	54578
#	97123
#	145327
#	202055
#	217613
#	264477
#
# Disc length: 4097 seconds
#
# Revision: 0
# Processed by: cddbd v1.5.1PL0 Copyright (c) Steve Scherf et al.
# Submitted via: CDex 1.51
#
DISCID=710fff08
DTITLE=Brad Mehldau Trio - At the Michigan Theater
DYEAR=2005
DGENRE=Jazz
TTITLE0=introduction
TTITLE1=Fifty Ways to Leave Your Lover (Paul Simon)
TTITLE2=O Que Sera (Chico Buarque)
TTITLE3=Monk's Dream (Thelonious Monk)
TTITLE4=Day is Done (Nick Drake)
TTITLE5=talking
TTITLE6=The Very Thought of You (Ray Noble)
TTITLE7=She's Leaving Home (Lennon/McCartney
EXTD=YEAR: 2005
EXTT0=
EXTT1=
EXTT2=
EXTT3=
EXTT4=
EXTT5=
EXTT6=
EXTT7=
PLAYORDER=
